<?xml version="1.0" encoding="UTF-8" standalone="no"?><svg xmlns="http://www.w3.org/2000/svg" xmlns:xlink="http://www.w3.org/1999/xlink" contentStyleType="text/css" height="85px" preserveAspectRatio="none" style="width:196px;height:85px;background:#FFFFFF;" version="1.1" viewBox="0 0 196 85" width="196px" zoomAndPan="magnify"><defs/><g><!--MD5=[a3eb4e092c0d8a886a89f65c95ab1305]
class GlobalDIParameters--><g id="elem_GlobalDIParameters"><rect codeLine="1" fill="#F1F1F1" height="64.2969" id="GlobalDIParameters" rx="2.5" ry="2.5" style="stroke:#181818;stroke-width:0.5;" width="175" x="7" y="7"/><ellipse cx="22" cy="23" fill="#ADD1B2" rx="11" ry="11" style="stroke:#181818;stroke-width:1.0;"/><path d="M24.4688,28.875 Q23.8906,29.1875 23.25,29.3438 Q22.6094,29.5 21.9063,29.5 Q19.4063,29.5 18.0781,27.8281 Q16.7656,26.1563 16.7656,23 Q16.7656,19.8438 18.0781,18.1719 Q19.4063,16.5 21.9063,16.5 Q22.6094,16.5 23.25,16.6563 Q23.9063,16.8125 24.4688,17.125 L24.4688,19.9219 Q23.8438,19.3594 23.25,19.0938 Q22.6563,18.8125 22.0313,18.8125 Q20.6875,18.8125 20,19.875 Q19.3125,20.9375 19.3125,23 Q19.3125,25.0781 20,26.1406 Q20.6875,27.1875 22.0313,27.1875 Q22.6563,27.1875 23.25,26.9219 Q23.8438,26.6563 24.4688,26.0781 L24.4688,28.875 Z " fill="#000000"/><text fill="#000000" font-family="sans-serif" font-size="14" lengthAdjust="spacing" textLength="143" x="36" y="27.8467">GlobalDIParameters</text><line style="stroke:#181818;stroke-width:0.5;" x1="8" x2="181" y1="39" y2="39"/><text fill="#000000" font-family="sans-serif" font-size="14" lengthAdjust="spacing" textLength="108" x="13" y="55.9951">RootPath string</text><line style="stroke:#181818;stroke-width:0.5;" x1="8" x2="181" y1="63.2969" y2="63.2969"/></g><!--MD5=[905cef257eaab126bb52e29e0b78c8ba]
@startuml
class GlobalDIParameters {
    RootPath string
}
@enduml

PlantUML version 1.2022.6(Tue Jun 21 20:34:49 MSK 2022)
(GPL source distribution)
Java Runtime: OpenJDK Runtime Environment
JVM: OpenJDK 64-Bit Server VM
Default Encoding: UTF-8
Language: ru
Country: RU
--></g></svg>