<?xml version="1.0" encoding="UTF-8" standalone="no"?><svg xmlns="http://www.w3.org/2000/svg" xmlns:xlink="http://www.w3.org/1999/xlink" contentStyleType="text/css" height="424px" preserveAspectRatio="none" style="width:880px;height:424px;background:#FFFFFF;" version="1.1" viewBox="0 0 880 424" width="880px" zoomAndPan="magnify"><defs/><g><!--MD5=[7d972e8a870a7d3102e7596738050350]
class IHostNetworkLink--><g id="elem_IHostNetworkLink"><rect codeLine="2" fill="#F1F1F1" height="104.8906" id="IHostNetworkLink" rx="2.5" ry="2.5" style="stroke:#181818;stroke-width:0.5;" width="211" x="317" y="313"/><ellipse cx="357.2" cy="329" fill="#B4A7E5" rx="11" ry="11" style="stroke:#181818;stroke-width:1.0;"/><path d="M353.6219,324.7813 L353.6219,322.5 L361.0125,322.5 L361.0125,324.7813 L358.5438,324.7813 L358.5438,333.2344 L361.0125,333.2344 L361.0125,335.5 L353.6219,335.5 L353.6219,333.2344 L356.0906,333.2344 L356.0906,324.7813 L353.6219,324.7813 Z " fill="#000000"/><text fill="#000000" font-family="sans-serif" font-size="14" font-style="italic" lengthAdjust="spacing" textLength="123" x="376.8" y="333.8467">IHostNetworkLink</text><line style="stroke:#181818;stroke-width:0.5;" x1="318" x2="527" y1="345" y2="345"/><ellipse cx="328" cy="356" fill="#84BE84" rx="3" ry="3" style="stroke:#038048;stroke-width:1.0;"/><text fill="#000000" font-family="sans-serif" font-size="14" lengthAdjust="spacing" textLength="121" x="337" y="361.9951">GetName() string</text><line style="stroke:#181818;stroke-width:1.0;" x1="318" x2="527" y1="369.2969" y2="369.2969"/><ellipse cx="328" cy="380.2969" fill="#84BE84" rx="3" ry="3" style="stroke:#038048;stroke-width:1.0;"/><text fill="#000000" font-family="sans-serif" font-size="14" lengthAdjust="spacing" textLength="114" x="337" y="386.292">GetType() string</text><line style="stroke:#181818;stroke-width:1.0;" x1="318" x2="527" y1="393.5938" y2="393.5938"/><ellipse cx="328" cy="404.5938" fill="#84BE84" rx="3" ry="3" style="stroke:#038048;stroke-width:1.0;"/><text fill="#000000" font-family="sans-serif" font-size="14" lengthAdjust="spacing" textLength="185" x="337" y="410.5889">GetAddresses() []net.IPNet</text></g><path d="M67,313 L67,338.1328 A0,0 0 0 0 67,338.1328 L253,338.1328 A0,0 0 0 0 253,338.1328 L253,331 L321,357.1484 L253,323 L253,323 L243,313 L67,313 A0,0 0 0 0 67,313 " fill="#FEFFDD" style="stroke:#181818;stroke-width:0.5;"/><path d="M243,313 L243,323 L253,323 L243,313 " fill="#FEFFDD" style="stroke:#181818;stroke-width:0.5;"/><text fill="#000000" font-family="sans-serif" font-size="13" lengthAdjust="spacing" textLength="165" x="73" y="330.0669">Gets host interface name</text><path d="M67,348.1328 L67,373.2656 A0,0 0 0 0 67,373.2656 L245,373.2656 A0,0 0 0 0 245,373.2656 L245,366.1328 L321,381.4453 L245,358.1328 L245,358.1328 L235,348.1328 L67,348.1328 A0,0 0 0 0 67,348.1328 " fill="#FEFFDD" style="stroke:#181818;stroke-width:0.5;"/><path d="M235,348.1328 L235,358.1328 L245,358.1328 L235,348.1328 " fill="#FEFFDD" style="stroke:#181818;stroke-width:0.5;"/><text fill="#000000" font-family="sans-serif" font-size="13" lengthAdjust="spacing" textLength="157" x="73" y="365.1997">Gets host interface type</text><path d="M67,383.2656 L67,408.3984 A0,0 0 0 0 67,408.3984 L282,408.3984 A0,0 0 0 0 282,408.3984 L282,401.2656 L321,405.7422 L282,393.2656 L282,393.2656 L272,383.2656 L67,383.2656 A0,0 0 0 0 67,383.2656 " fill="#FEFFDD" style="stroke:#181818;stroke-width:0.5;"/><path d="M272,383.2656 L272,393.2656 L282,393.2656 L272,383.2656 " fill="#FEFFDD" style="stroke:#181818;stroke-width:0.5;"/><text fill="#000000" font-family="sans-serif" font-size="13" lengthAdjust="spacing" textLength="194" x="73" y="400.3325">Gets host interface addresses</text><!--MD5=[e5fff6262f684687265fbe09f1b48075]
class HostNetworkLink--><g id="elem_HostNetworkLink"><rect codeLine="4" fill="#F1F1F1" height="104.8906" id="HostNetworkLink" rx="2.5" ry="2.5" style="stroke:#181818;stroke-width:0.5;" width="176" x="334.5" y="148"/><ellipse cx="360.75" cy="164" fill="#ADD1B2" rx="11" ry="11" style="stroke:#181818;stroke-width:1.0;"/><path d="M363.2188,169.875 Q362.6406,170.1875 362,170.3438 Q361.3594,170.5 360.6563,170.5 Q358.1563,170.5 356.8281,168.8281 Q355.5156,167.1563 355.5156,164 Q355.5156,160.8438 356.8281,159.1719 Q358.1563,157.5 360.6563,157.5 Q361.3594,157.5 362,157.6563 Q362.6563,157.8125 363.2188,158.125 L363.2188,160.9219 Q362.5938,160.3594 362,160.0938 Q361.4063,159.8125 360.7813,159.8125 Q359.4375,159.8125 358.75,160.875 Q358.0625,161.9375 358.0625,164 Q358.0625,166.0781 358.75,167.1406 Q359.4375,168.1875 360.7813,168.1875 Q361.4063,168.1875 362,167.9219 Q362.5938,167.6563 363.2188,167.0781 L363.2188,169.875 Z " fill="#000000"/><text fill="#000000" font-family="sans-serif" font-size="14" lengthAdjust="spacing" textLength="119" x="377.25" y="168.8467">HostNetworkLink</text><line style="stroke:#181818;stroke-width:0.5;" x1="335.5" x2="509.5" y1="180" y2="180"/><ellipse cx="345.5" cy="191" fill="none" rx="3" ry="3" style="stroke:#038048;stroke-width:1.0;"/><text fill="#000000" font-family="sans-serif" font-size="14" lengthAdjust="spacing" textLength="86" x="354.5" y="196.9951">Name string</text><line style="stroke:#181818;stroke-width:1.0;" x1="335.5" x2="509.5" y1="204.2969" y2="204.2969"/><ellipse cx="345.5" cy="215.2969" fill="none" rx="3" ry="3" style="stroke:#038048;stroke-width:1.0;"/><text fill="#000000" font-family="sans-serif" font-size="14" lengthAdjust="spacing" textLength="150" x="354.5" y="221.292">Addresses []net.IPNet</text><line style="stroke:#181818;stroke-width:1.0;" x1="335.5" x2="509.5" y1="228.5938" y2="228.5938"/><ellipse cx="345.5" cy="239.5938" fill="none" rx="3" ry="3" style="stroke:#038048;stroke-width:1.0;"/><text fill="#000000" font-family="sans-serif" font-size="14" lengthAdjust="spacing" textLength="79" x="354.5" y="245.5889">Type string</text></g><path d="M6,175.5 L6,215.7656 A0,0 0 0 0 6,215.7656 L299,215.7656 A0,0 0 0 0 299,215.7656 L299,199.6328 L338.5,240.7422 L299,191.6328 L299,185.5 L289,175.5 L6,175.5 A0,0 0 0 0 6,175.5 " fill="#FEFFDD" style="stroke:#181818;stroke-width:0.5;"/><path d="M289,175.5 L289,185.5 L299,185.5 L289,175.5 " fill="#FEFFDD" style="stroke:#181818;stroke-width:0.5;"/><text fill="#000000" font-family="sans-serif" font-size="13" lengthAdjust="spacing" textLength="151" x="12" y="192.5669">Default value is "none"</text><text fill="#000000" font-family="sans-serif" font-size="13" lengthAdjust="spacing" textLength="272" x="12" y="207.6997">because HostNetworkLink is a basic class</text><!--MD5=[b17b81604319b97b33af23212dfcf2f4]
class HostNetworkDevice--><g id="elem_HostNetworkDevice"><rect codeLine="4" fill="#F1F1F1" height="48" id="HostNetworkDevice" rx="2.5" ry="2.5" style="stroke:#181818;stroke-width:0.5;" width="171" x="238" y="23.5"/><ellipse cx="253" cy="39.5" fill="#ADD1B2" rx="11" ry="11" style="stroke:#181818;stroke-width:1.0;"/><path d="M255.4688,45.375 Q254.8906,45.6875 254.25,45.8438 Q253.6094,46 252.9063,46 Q250.4063,46 249.0781,44.3281 Q247.7656,42.6563 247.7656,39.5 Q247.7656,36.3438 249.0781,34.6719 Q250.4063,33 252.9063,33 Q253.6094,33 254.25,33.1563 Q254.9063,33.3125 255.4688,33.625 L255.4688,36.4219 Q254.8438,35.8594 254.25,35.5938 Q253.6563,35.3125 253.0313,35.3125 Q251.6875,35.3125 251,36.375 Q250.3125,37.4375 250.3125,39.5 Q250.3125,41.5781 251,42.6406 Q251.6875,43.6875 253.0313,43.6875 Q253.6563,43.6875 254.25,43.4219 Q254.8438,43.1563 255.4688,42.5781 L255.4688,45.375 Z " fill="#000000"/><text fill="#000000" font-family="sans-serif" font-size="14" lengthAdjust="spacing" textLength="139" x="267" y="44.3467">HostNetworkDevice</text><line style="stroke:#181818;stroke-width:0.5;" x1="239" x2="408" y1="55.5" y2="55.5"/><line style="stroke:#181818;stroke-width:0.5;" x1="239" x2="408" y1="63.5" y2="63.5"/></g><!--MD5=[7708bf2b3811a61fdbad496487474248]
class HostNetworkVlan--><g id="elem_HostNetworkVlan"><rect codeLine="5" fill="#F1F1F1" height="80.5938" id="HostNetworkVlan" rx="2.5" ry="2.5" style="stroke:#181818;stroke-width:0.5;" width="154" x="444.5" y="7"/><ellipse cx="459.5" cy="23" fill="#ADD1B2" rx="11" ry="11" style="stroke:#181818;stroke-width:1.0;"/><path d="M461.9688,28.875 Q461.3906,29.1875 460.75,29.3438 Q460.1094,29.5 459.4063,29.5 Q456.9063,29.5 455.5781,27.8281 Q454.2656,26.1563 454.2656,23 Q454.2656,19.8438 455.5781,18.1719 Q456.9063,16.5 459.4063,16.5 Q460.1094,16.5 460.75,16.6563 Q461.4063,16.8125 461.9688,17.125 L461.9688,19.9219 Q461.3438,19.3594 460.75,19.0938 Q460.1563,18.8125 459.5313,18.8125 Q458.1875,18.8125 457.5,19.875 Q456.8125,20.9375 456.8125,23 Q456.8125,25.0781 457.5,26.1406 Q458.1875,27.1875 459.5313,27.1875 Q460.1563,27.1875 460.75,26.9219 Q461.3438,26.6563 461.9688,26.0781 L461.9688,28.875 Z " fill="#000000"/><text fill="#000000" font-family="sans-serif" font-size="14" lengthAdjust="spacing" textLength="122" x="473.5" y="27.8467">HostNetworkVlan</text><line style="stroke:#181818;stroke-width:0.5;" x1="445.5" x2="597.5" y1="39" y2="39"/><ellipse cx="455.5" cy="50" fill="none" rx="3" ry="3" style="stroke:#038048;stroke-width:1.0;"/><text fill="#000000" font-family="sans-serif" font-size="14" lengthAdjust="spacing" textLength="69" x="464.5" y="55.9951">VlanID int</text><line style="stroke:#181818;stroke-width:1.0;" x1="445.5" x2="597.5" y1="63.2969" y2="63.2969"/><ellipse cx="455.5" cy="74.2969" fill="none" rx="3" ry="3" style="stroke:#038048;stroke-width:1.0;"/><text fill="#000000" font-family="sans-serif" font-size="14" lengthAdjust="spacing" textLength="92" x="464.5" y="80.292">Master string</text></g><!--MD5=[38ee6d26ec00ccbe8230cc3091251b0e]
class HostNetworkInterfacesConfig--><g id="elem_HostNetworkInterfacesConfig"><rect codeLine="6" fill="#F1F1F1" height="80.5938" id="HostNetworkInterfacesConfig" rx="2.5" ry="2.5" style="stroke:#181818;stroke-width:0.5;" width="239" x="634" y="7"/><ellipse cx="649" cy="23" fill="#ADD1B2" rx="11" ry="11" style="stroke:#181818;stroke-width:1.0;"/><path d="M651.4688,28.875 Q650.8906,29.1875 650.25,29.3438 Q649.6094,29.5 648.9063,29.5 Q646.4063,29.5 645.0781,27.8281 Q643.7656,26.1563 643.7656,23 Q643.7656,19.8438 645.0781,18.1719 Q646.4063,16.5 648.9063,16.5 Q649.6094,16.5 650.25,16.6563 Q650.9063,16.8125 651.4688,17.125 L651.4688,19.9219 Q650.8438,19.3594 650.25,19.0938 Q649.6563,18.8125 649.0313,18.8125 Q647.6875,18.8125 647,19.875 Q646.3125,20.9375 646.3125,23 Q646.3125,25.0781 647,26.1406 Q647.6875,27.1875 649.0313,27.1875 Q649.6563,27.1875 650.25,26.9219 Q650.8438,26.6563 651.4688,26.0781 L651.4688,28.875 Z " fill="#000000"/><text fill="#000000" font-family="sans-serif" font-size="14" lengthAdjust="spacing" textLength="207" x="663" y="27.8467">HostNetworkInterfacesConfig</text><line style="stroke:#181818;stroke-width:0.5;" x1="635" x2="872" y1="39" y2="39"/><ellipse cx="645" cy="50" fill="none" rx="3" ry="3" style="stroke:#038048;stroke-width:1.0;"/><text fill="#000000" font-family="sans-serif" font-size="14" lengthAdjust="spacing" textLength="209" x="654" y="55.9951">Devices []HostNetworkDevice</text><line style="stroke:#181818;stroke-width:1.0;" x1="635" x2="872" y1="63.2969" y2="63.2969"/><ellipse cx="645" cy="74.2969" fill="none" rx="3" ry="3" style="stroke:#038048;stroke-width:1.0;"/><text fill="#000000" font-family="sans-serif" font-size="14" lengthAdjust="spacing" textLength="183" x="654" y="80.292">Vlans   []HostNetworkVlan</text></g><!--MD5=[c7ae537b1fb1fd62da54845b02126a57]
link HostNetworkLink to IHostNetworkLink--><g id="link_HostNetworkLink_IHostNetworkLink"><path codeLine="17" d="M422.5,253.07 C422.5,265.62 422.5,279.27 422.5,292.57 " fill="none" id="HostNetworkLink-to-IHostNetworkLink" style="stroke:#181818;stroke-width:1.0;"/><polygon fill="none" points="429.5,292.98,422.5,312.98,415.5,292.98,429.5,292.98" style="stroke:#181818;stroke-width:1.0;"/></g><!--MD5=[7c0130aaa2dc79170695f96da00ebff9]
link HostNetworkDevice to HostNetworkLink--><g id="link_HostNetworkDevice_HostNetworkLink"><path codeLine="7" d="M338.75,71.76 C350.12,89.11 366.23,113.67 381.28,136.63 " fill="none" id="HostNetworkDevice-to-HostNetworkLink" style="stroke:#181818;stroke-width:1.0;"/><polygon fill="#181818" points="388.56,147.74,388.6149,140.5291,381.9799,137.705,381.9249,144.9159,388.56,147.74" style="stroke:#181818;stroke-width:1.0;"/></g><!--MD5=[f741d5613818e7c6a8b6721c8e9fb611]
link HostNetworkVlan to HostNetworkLink--><g id="link_HostNetworkVlan_HostNetworkLink"><path codeLine="11" d="M495.49,88.17 C485.76,103.01 474.46,120.25 463.69,136.67 " fill="none" id="HostNetworkVlan-to-HostNetworkLink" style="stroke:#181818;stroke-width:1.0;"/><polygon fill="#181818" points="456.35,147.87,462.9851,145.0459,462.9301,137.835,456.2951,140.6591,456.35,147.87" style="stroke:#181818;stroke-width:1.0;"/></g><!--MD5=[f3574af7df876bcc9d9cc9715f6f7c16]
@startuml

!include HostNetworkDevice.puml
!include HostNetworkVlan.puml


class HostNetworkInterfacesConfig {
    +Devices []HostNetworkDevice
    - -
    +Vlans   []HostNetworkVlan
}


@enduml

@startuml




interface IHostNetworkLink {
    +GetName() string
    - -
    +GetType() string
    - -
    +GetAddresses() []net.IPNet
}

note left of IHostNetworkLink::GetName
Gets host interface name
end note

note left of IHostNetworkLink::GetType
Gets host interface type
end note

note left of IHostNetworkLink::GetAddresses
Gets host interface addresses
end note


class HostNetworkLink {
    +Name string
    - -
    +Addresses []net.IPNet
    - -
    +Type string
}

note left of HostNetworkLink::Type
Default value is "none"
because HostNetworkLink is a basic class
end note

HostNetworkLink - -|> IHostNetworkLink


class HostNetworkDevice{
}

HostNetworkDevice - -* HostNetworkLink




class HostNetworkVlan {
    +VlanID int
    - -
    +Master string
}

HostNetworkVlan - -* HostNetworkLink



class HostNetworkInterfacesConfig {
    +Devices []HostNetworkDevice
	- -
    +Vlans   []HostNetworkVlan
}


@enduml

PlantUML version 1.2022.6(Tue Jun 21 20:34:49 MSK 2022)
(GPL source distribution)
Java Runtime: OpenJDK Runtime Environment
JVM: OpenJDK 64-Bit Server VM
Default Encoding: UTF-8
Language: ru
Country: RU
--></g></svg>