<?xml version="1.0" encoding="UTF-8" standalone="no"?><svg xmlns="http://www.w3.org/2000/svg" xmlns:xlink="http://www.w3.org/1999/xlink" contentStyleType="text/css" height="391px" preserveAspectRatio="none" style="width:535px;height:391px;background:#FFFFFF;" version="1.1" viewBox="0 0 535 391" width="535px" zoomAndPan="magnify"><defs/><g><!--MD5=[7d972e8a870a7d3102e7596738050350]
class IHostNetworkLink--><g id="elem_IHostNetworkLink"><rect codeLine="2" fill="#F1F1F1" height="104.8906" id="IHostNetworkLink" rx="2.5" ry="2.5" style="stroke:#181818;stroke-width:0.5;" width="211" x="317" y="280"/><ellipse cx="357.2" cy="296" fill="#B4A7E5" rx="11" ry="11" style="stroke:#181818;stroke-width:1.0;"/><path d="M353.6219,291.7813 L353.6219,289.5 L361.0125,289.5 L361.0125,291.7813 L358.5438,291.7813 L358.5438,300.2344 L361.0125,300.2344 L361.0125,302.5 L353.6219,302.5 L353.6219,300.2344 L356.0906,300.2344 L356.0906,291.7813 L353.6219,291.7813 Z " fill="#000000"/><text fill="#000000" font-family="sans-serif" font-size="14" font-style="italic" lengthAdjust="spacing" textLength="123" x="376.8" y="300.8467">IHostNetworkLink</text><line style="stroke:#181818;stroke-width:0.5;" x1="318" x2="527" y1="312" y2="312"/><ellipse cx="328" cy="323" fill="#84BE84" rx="3" ry="3" style="stroke:#038048;stroke-width:1.0;"/><text fill="#000000" font-family="sans-serif" font-size="14" lengthAdjust="spacing" textLength="121" x="337" y="328.9951">GetName() string</text><line style="stroke:#181818;stroke-width:1.0;" x1="318" x2="527" y1="336.2969" y2="336.2969"/><ellipse cx="328" cy="347.2969" fill="#84BE84" rx="3" ry="3" style="stroke:#038048;stroke-width:1.0;"/><text fill="#000000" font-family="sans-serif" font-size="14" lengthAdjust="spacing" textLength="114" x="337" y="353.292">GetType() string</text><line style="stroke:#181818;stroke-width:1.0;" x1="318" x2="527" y1="360.5938" y2="360.5938"/><ellipse cx="328" cy="371.5938" fill="#84BE84" rx="3" ry="3" style="stroke:#038048;stroke-width:1.0;"/><text fill="#000000" font-family="sans-serif" font-size="14" lengthAdjust="spacing" textLength="185" x="337" y="377.5889">GetAddresses() []net.IPNet</text></g><path d="M67,280 L67,305.1328 A0,0 0 0 0 67,305.1328 L253,305.1328 A0,0 0 0 0 253,305.1328 L253,298 L321,324.1484 L253,290 L253,290 L243,280 L67,280 A0,0 0 0 0 67,280 " fill="#FEFFDD" style="stroke:#181818;stroke-width:0.5;"/><path d="M243,280 L243,290 L253,290 L243,280 " fill="#FEFFDD" style="stroke:#181818;stroke-width:0.5;"/><text fill="#000000" font-family="sans-serif" font-size="13" lengthAdjust="spacing" textLength="165" x="73" y="297.0669">Gets host interface name</text><path d="M67,315.1328 L67,340.2656 A0,0 0 0 0 67,340.2656 L245,340.2656 A0,0 0 0 0 245,340.2656 L245,333.1328 L321,348.4453 L245,325.1328 L245,325.1328 L235,315.1328 L67,315.1328 A0,0 0 0 0 67,315.1328 " fill="#FEFFDD" style="stroke:#181818;stroke-width:0.5;"/><path d="M235,315.1328 L235,325.1328 L245,325.1328 L235,315.1328 " fill="#FEFFDD" style="stroke:#181818;stroke-width:0.5;"/><text fill="#000000" font-family="sans-serif" font-size="13" lengthAdjust="spacing" textLength="157" x="73" y="332.1997">Gets host interface type</text><path d="M67,350.2656 L67,375.3984 A0,0 0 0 0 67,375.3984 L282,375.3984 A0,0 0 0 0 282,375.3984 L282,368.2656 L321,372.7422 L282,360.2656 L282,360.2656 L272,350.2656 L67,350.2656 A0,0 0 0 0 67,350.2656 " fill="#FEFFDD" style="stroke:#181818;stroke-width:0.5;"/><path d="M272,350.2656 L272,360.2656 L282,360.2656 L272,350.2656 " fill="#FEFFDD" style="stroke:#181818;stroke-width:0.5;"/><text fill="#000000" font-family="sans-serif" font-size="13" lengthAdjust="spacing" textLength="194" x="73" y="367.3325">Gets host interface addresses</text><!--MD5=[e5fff6262f684687265fbe09f1b48075]
class HostNetworkLink--><g id="elem_HostNetworkLink"><rect codeLine="4" fill="#F1F1F1" height="104.8906" id="HostNetworkLink" rx="2.5" ry="2.5" style="stroke:#181818;stroke-width:0.5;" width="176" x="334.5" y="115"/><ellipse cx="360.75" cy="131" fill="#ADD1B2" rx="11" ry="11" style="stroke:#181818;stroke-width:1.0;"/><path d="M363.2188,136.875 Q362.6406,137.1875 362,137.3438 Q361.3594,137.5 360.6563,137.5 Q358.1563,137.5 356.8281,135.8281 Q355.5156,134.1563 355.5156,131 Q355.5156,127.8438 356.8281,126.1719 Q358.1563,124.5 360.6563,124.5 Q361.3594,124.5 362,124.6563 Q362.6563,124.8125 363.2188,125.125 L363.2188,127.9219 Q362.5938,127.3594 362,127.0938 Q361.4063,126.8125 360.7813,126.8125 Q359.4375,126.8125 358.75,127.875 Q358.0625,128.9375 358.0625,131 Q358.0625,133.0781 358.75,134.1406 Q359.4375,135.1875 360.7813,135.1875 Q361.4063,135.1875 362,134.9219 Q362.5938,134.6563 363.2188,134.0781 L363.2188,136.875 Z " fill="#000000"/><text fill="#000000" font-family="sans-serif" font-size="14" lengthAdjust="spacing" textLength="119" x="377.25" y="135.8467">HostNetworkLink</text><line style="stroke:#181818;stroke-width:0.5;" x1="335.5" x2="509.5" y1="147" y2="147"/><ellipse cx="345.5" cy="158" fill="none" rx="3" ry="3" style="stroke:#038048;stroke-width:1.0;"/><text fill="#000000" font-family="sans-serif" font-size="14" lengthAdjust="spacing" textLength="86" x="354.5" y="163.9951">Name string</text><line style="stroke:#181818;stroke-width:1.0;" x1="335.5" x2="509.5" y1="171.2969" y2="171.2969"/><ellipse cx="345.5" cy="182.2969" fill="none" rx="3" ry="3" style="stroke:#038048;stroke-width:1.0;"/><text fill="#000000" font-family="sans-serif" font-size="14" lengthAdjust="spacing" textLength="150" x="354.5" y="188.292">Addresses []net.IPNet</text><line style="stroke:#181818;stroke-width:1.0;" x1="335.5" x2="509.5" y1="195.5938" y2="195.5938"/><ellipse cx="345.5" cy="206.5938" fill="none" rx="3" ry="3" style="stroke:#038048;stroke-width:1.0;"/><text fill="#000000" font-family="sans-serif" font-size="14" lengthAdjust="spacing" textLength="79" x="354.5" y="212.5889">Type string</text></g><path d="M6,142.5 L6,182.7656 A0,0 0 0 0 6,182.7656 L299,182.7656 A0,0 0 0 0 299,182.7656 L299,166.6328 L338.5,207.7422 L299,158.6328 L299,152.5 L289,142.5 L6,142.5 A0,0 0 0 0 6,142.5 " fill="#FEFFDD" style="stroke:#181818;stroke-width:0.5;"/><path d="M289,142.5 L289,152.5 L299,152.5 L289,142.5 " fill="#FEFFDD" style="stroke:#181818;stroke-width:0.5;"/><text fill="#000000" font-family="sans-serif" font-size="13" lengthAdjust="spacing" textLength="151" x="12" y="159.5669">Default value is "none"</text><text fill="#000000" font-family="sans-serif" font-size="13" lengthAdjust="spacing" textLength="272" x="12" y="174.6997">because HostNetworkLink is a basic class</text><!--MD5=[b17b81604319b97b33af23212dfcf2f4]
class HostNetworkDevice--><g id="elem_HostNetworkDevice"><rect codeLine="4" fill="#F1F1F1" height="48" id="HostNetworkDevice" rx="2.5" ry="2.5" style="stroke:#181818;stroke-width:0.5;" width="171" x="337" y="7"/><ellipse cx="352" cy="23" fill="#ADD1B2" rx="11" ry="11" style="stroke:#181818;stroke-width:1.0;"/><path d="M354.4688,28.875 Q353.8906,29.1875 353.25,29.3438 Q352.6094,29.5 351.9063,29.5 Q349.4063,29.5 348.0781,27.8281 Q346.7656,26.1563 346.7656,23 Q346.7656,19.8438 348.0781,18.1719 Q349.4063,16.5 351.9063,16.5 Q352.6094,16.5 353.25,16.6563 Q353.9063,16.8125 354.4688,17.125 L354.4688,19.9219 Q353.8438,19.3594 353.25,19.0938 Q352.6563,18.8125 352.0313,18.8125 Q350.6875,18.8125 350,19.875 Q349.3125,20.9375 349.3125,23 Q349.3125,25.0781 350,26.1406 Q350.6875,27.1875 352.0313,27.1875 Q352.6563,27.1875 353.25,26.9219 Q353.8438,26.6563 354.4688,26.0781 L354.4688,28.875 Z " fill="#000000"/><text fill="#000000" font-family="sans-serif" font-size="14" lengthAdjust="spacing" textLength="139" x="366" y="27.8467">HostNetworkDevice</text><line style="stroke:#181818;stroke-width:0.5;" x1="338" x2="507" y1="39" y2="39"/><line style="stroke:#181818;stroke-width:0.5;" x1="338" x2="507" y1="47" y2="47"/></g><!--MD5=[c7ae537b1fb1fd62da54845b02126a57]
link HostNetworkLink to IHostNetworkLink--><g id="link_HostNetworkLink_IHostNetworkLink"><path codeLine="17" d="M422.5,220.07 C422.5,232.62 422.5,246.27 422.5,259.57 " fill="none" id="HostNetworkLink-to-IHostNetworkLink" style="stroke:#181818;stroke-width:1.0;"/><polygon fill="none" points="429.5,259.98,422.5,279.98,415.5,259.98,429.5,259.98" style="stroke:#181818;stroke-width:1.0;"/></g><!--MD5=[7c0130aaa2dc79170695f96da00ebff9]
link HostNetworkDevice to HostNetworkLink--><g id="link_HostNetworkDevice_HostNetworkLink"><path codeLine="7" d="M422.5,55.12 C422.5,68.1 422.5,85.01 422.5,101.71 " fill="none" id="HostNetworkDevice-to-HostNetworkLink" style="stroke:#181818;stroke-width:1.0;"/><polygon fill="#181818" points="422.5,114.98,426.5,108.98,422.5,102.98,418.5,108.98,422.5,114.98" style="stroke:#181818;stroke-width:1.0;"/></g><!--MD5=[38cbe8686ebe2df56815005e9e18d619]
@startuml

!include HostNetworkLink.puml

class HostNetworkDevice{
}

HostNetworkDevice - -* HostNetworkLink

@enduml

@startuml



interface IHostNetworkLink {
    +GetName() string
    - -
    +GetType() string
    - -
    +GetAddresses() []net.IPNet
}

note left of IHostNetworkLink::GetName
Gets host interface name
end note

note left of IHostNetworkLink::GetType
Gets host interface type
end note

note left of IHostNetworkLink::GetAddresses
Gets host interface addresses
end note


class HostNetworkLink {
    +Name string
    - -
    +Addresses []net.IPNet
    - -
    +Type string
}

note left of HostNetworkLink::Type
Default value is "none"
because HostNetworkLink is a basic class
end note

HostNetworkLink - -|> IHostNetworkLink


class HostNetworkDevice{
}

HostNetworkDevice - -* HostNetworkLink

@enduml

PlantUML version 1.2022.6(Tue Jun 21 20:34:49 MSK 2022)
(GPL source distribution)
Java Runtime: OpenJDK Runtime Environment
JVM: OpenJDK 64-Bit Server VM
Default Encoding: UTF-8
Language: ru
Country: RU
--></g></svg>