<?xml version="1.0" encoding="UTF-8" standalone="no"?><svg xmlns="http://www.w3.org/2000/svg" xmlns:xlink="http://www.w3.org/1999/xlink" contentStyleType="text/css" height="283px" preserveAspectRatio="none" style="width:535px;height:283px;background:#FFFFFF;" version="1.1" viewBox="0 0 535 283" width="535px" zoomAndPan="magnify"><defs/><g><!--MD5=[7d972e8a870a7d3102e7596738050350]
class IHostNetworkLink--><g id="elem_IHostNetworkLink"><rect codeLine="2" fill="#F1F1F1" height="104.8906" id="IHostNetworkLink" rx="2.5" ry="2.5" style="stroke:#181818;stroke-width:0.5;" width="211" x="317" y="172"/><ellipse cx="357.2" cy="188" fill="#B4A7E5" rx="11" ry="11" style="stroke:#181818;stroke-width:1.0;"/><path d="M353.6219,183.7813 L353.6219,181.5 L361.0125,181.5 L361.0125,183.7813 L358.5438,183.7813 L358.5438,192.2344 L361.0125,192.2344 L361.0125,194.5 L353.6219,194.5 L353.6219,192.2344 L356.0906,192.2344 L356.0906,183.7813 L353.6219,183.7813 Z " fill="#000000"/><text fill="#000000" font-family="sans-serif" font-size="14" font-style="italic" lengthAdjust="spacing" textLength="123" x="376.8" y="192.8467">IHostNetworkLink</text><line style="stroke:#181818;stroke-width:0.5;" x1="318" x2="527" y1="204" y2="204"/><ellipse cx="328" cy="215" fill="#84BE84" rx="3" ry="3" style="stroke:#038048;stroke-width:1.0;"/><text fill="#000000" font-family="sans-serif" font-size="14" lengthAdjust="spacing" textLength="121" x="337" y="220.9951">GetName() string</text><line style="stroke:#181818;stroke-width:1.0;" x1="318" x2="527" y1="228.2969" y2="228.2969"/><ellipse cx="328" cy="239.2969" fill="#84BE84" rx="3" ry="3" style="stroke:#038048;stroke-width:1.0;"/><text fill="#000000" font-family="sans-serif" font-size="14" lengthAdjust="spacing" textLength="114" x="337" y="245.292">GetType() string</text><line style="stroke:#181818;stroke-width:1.0;" x1="318" x2="527" y1="252.5938" y2="252.5938"/><ellipse cx="328" cy="263.5938" fill="#84BE84" rx="3" ry="3" style="stroke:#038048;stroke-width:1.0;"/><text fill="#000000" font-family="sans-serif" font-size="14" lengthAdjust="spacing" textLength="185" x="337" y="269.5889">GetAddresses() []net.IPNet</text></g><path d="M67,172 L67,197.1328 A0,0 0 0 0 67,197.1328 L253,197.1328 A0,0 0 0 0 253,197.1328 L253,190 L321,216.1484 L253,182 L253,182 L243,172 L67,172 A0,0 0 0 0 67,172 " fill="#FEFFDD" style="stroke:#181818;stroke-width:0.5;"/><path d="M243,172 L243,182 L253,182 L243,172 " fill="#FEFFDD" style="stroke:#181818;stroke-width:0.5;"/><text fill="#000000" font-family="sans-serif" font-size="13" lengthAdjust="spacing" textLength="165" x="73" y="189.0669">Gets host interface name</text><path d="M67,207.1328 L67,232.2656 A0,0 0 0 0 67,232.2656 L245,232.2656 A0,0 0 0 0 245,232.2656 L245,225.1328 L321,240.4453 L245,217.1328 L245,217.1328 L235,207.1328 L67,207.1328 A0,0 0 0 0 67,207.1328 " fill="#FEFFDD" style="stroke:#181818;stroke-width:0.5;"/><path d="M235,207.1328 L235,217.1328 L245,217.1328 L235,207.1328 " fill="#FEFFDD" style="stroke:#181818;stroke-width:0.5;"/><text fill="#000000" font-family="sans-serif" font-size="13" lengthAdjust="spacing" textLength="157" x="73" y="224.1997">Gets host interface type</text><path d="M67,242.2656 L67,267.3984 A0,0 0 0 0 67,267.3984 L282,267.3984 A0,0 0 0 0 282,267.3984 L282,260.2656 L321,264.7422 L282,252.2656 L282,252.2656 L272,242.2656 L67,242.2656 A0,0 0 0 0 67,242.2656 " fill="#FEFFDD" style="stroke:#181818;stroke-width:0.5;"/><path d="M272,242.2656 L272,252.2656 L282,252.2656 L272,242.2656 " fill="#FEFFDD" style="stroke:#181818;stroke-width:0.5;"/><text fill="#000000" font-family="sans-serif" font-size="13" lengthAdjust="spacing" textLength="194" x="73" y="259.3325">Gets host interface addresses</text><!--MD5=[e5fff6262f684687265fbe09f1b48075]
class HostNetworkLink--><g id="elem_HostNetworkLink"><rect codeLine="4" fill="#F1F1F1" height="104.8906" id="HostNetworkLink" rx="2.5" ry="2.5" style="stroke:#181818;stroke-width:0.5;" width="176" x="334.5" y="7"/><ellipse cx="360.75" cy="23" fill="#ADD1B2" rx="11" ry="11" style="stroke:#181818;stroke-width:1.0;"/><path d="M363.2188,28.875 Q362.6406,29.1875 362,29.3438 Q361.3594,29.5 360.6563,29.5 Q358.1563,29.5 356.8281,27.8281 Q355.5156,26.1563 355.5156,23 Q355.5156,19.8438 356.8281,18.1719 Q358.1563,16.5 360.6563,16.5 Q361.3594,16.5 362,16.6563 Q362.6563,16.8125 363.2188,17.125 L363.2188,19.9219 Q362.5938,19.3594 362,19.0938 Q361.4063,18.8125 360.7813,18.8125 Q359.4375,18.8125 358.75,19.875 Q358.0625,20.9375 358.0625,23 Q358.0625,25.0781 358.75,26.1406 Q359.4375,27.1875 360.7813,27.1875 Q361.4063,27.1875 362,26.9219 Q362.5938,26.6563 363.2188,26.0781 L363.2188,28.875 Z " fill="#000000"/><text fill="#000000" font-family="sans-serif" font-size="14" lengthAdjust="spacing" textLength="119" x="377.25" y="27.8467">HostNetworkLink</text><line style="stroke:#181818;stroke-width:0.5;" x1="335.5" x2="509.5" y1="39" y2="39"/><ellipse cx="345.5" cy="50" fill="none" rx="3" ry="3" style="stroke:#038048;stroke-width:1.0;"/><text fill="#000000" font-family="sans-serif" font-size="14" lengthAdjust="spacing" textLength="86" x="354.5" y="55.9951">Name string</text><line style="stroke:#181818;stroke-width:1.0;" x1="335.5" x2="509.5" y1="63.2969" y2="63.2969"/><ellipse cx="345.5" cy="74.2969" fill="none" rx="3" ry="3" style="stroke:#038048;stroke-width:1.0;"/><text fill="#000000" font-family="sans-serif" font-size="14" lengthAdjust="spacing" textLength="150" x="354.5" y="80.292">Addresses []net.IPNet</text><line style="stroke:#181818;stroke-width:1.0;" x1="335.5" x2="509.5" y1="87.5938" y2="87.5938"/><ellipse cx="345.5" cy="98.5938" fill="none" rx="3" ry="3" style="stroke:#038048;stroke-width:1.0;"/><text fill="#000000" font-family="sans-serif" font-size="14" lengthAdjust="spacing" textLength="79" x="354.5" y="104.5889">Type string</text></g><path d="M6,34.5 L6,74.7656 A0,0 0 0 0 6,74.7656 L299,74.7656 A0,0 0 0 0 299,74.7656 L299,58.6328 L338.5,99.7422 L299,50.6328 L299,44.5 L289,34.5 L6,34.5 A0,0 0 0 0 6,34.5 " fill="#FEFFDD" style="stroke:#181818;stroke-width:0.5;"/><path d="M289,34.5 L289,44.5 L299,44.5 L289,34.5 " fill="#FEFFDD" style="stroke:#181818;stroke-width:0.5;"/><text fill="#000000" font-family="sans-serif" font-size="13" lengthAdjust="spacing" textLength="151" x="12" y="51.5669">Default value is "none"</text><text fill="#000000" font-family="sans-serif" font-size="13" lengthAdjust="spacing" textLength="272" x="12" y="66.6997">because HostNetworkLink is a basic class</text><!--MD5=[c7ae537b1fb1fd62da54845b02126a57]
link HostNetworkLink to IHostNetworkLink--><g id="link_HostNetworkLink_IHostNetworkLink"><path codeLine="17" d="M422.5,112.07 C422.5,124.62 422.5,138.27 422.5,151.57 " fill="none" id="HostNetworkLink-to-IHostNetworkLink" style="stroke:#181818;stroke-width:1.0;"/><polygon fill="none" points="429.5,151.98,422.5,171.98,415.5,151.98,429.5,151.98" style="stroke:#181818;stroke-width:1.0;"/></g><!--MD5=[06e9a01b1d4dcd7e89a9b05225b08bb7]
@startuml

!include ../interfaces/IHostNetworkLink.puml

class HostNetworkLink {
    +Name string
    - -
    +Addresses []net.IPNet
    - -
    +Type string
}

note left of HostNetworkLink::Type
Default value is "none"
because HostNetworkLink is a basic class
end note

HostNetworkLink - -|> IHostNetworkLink

@enduml

@startuml


interface IHostNetworkLink {
    +GetName() string
    - -
    +GetType() string
    - -
    +GetAddresses() []net.IPNet
}

note left of IHostNetworkLink::GetName
Gets host interface name
end note

note left of IHostNetworkLink::GetType
Gets host interface type
end note

note left of IHostNetworkLink::GetAddresses
Gets host interface addresses
end note


class HostNetworkLink {
    +Name string
    - -
    +Addresses []net.IPNet
    - -
    +Type string
}

note left of HostNetworkLink::Type
Default value is "none"
because HostNetworkLink is a basic class
end note

HostNetworkLink - -|> IHostNetworkLink

@enduml

PlantUML version 1.2022.6(Tue Jun 21 20:34:49 MSK 2022)
(GPL source distribution)
Java Runtime: OpenJDK Runtime Environment
JVM: OpenJDK 64-Bit Server VM
Default Encoding: UTF-8
Language: ru
Country: RU
--></g></svg>